<svg xmlns="http://www.w3.org/2000/svg" viewBox="0 0 600 697.5"><defs><style>.cls-1{fill:#fff;}</style></defs><title>Icon</title><g id="Upper"><path class="cls-1" d="M108.66,610.5c-21.84-9.88-28.64-27-27.91-50.41,1.3-41.7.24-83.46.4-125.2.21-51.91,28.93-84.56,80.4-91.78,43.65-6.13,43.69-6.15,59,35.63,14.7,40.16,28.93,80.51,44.29,120.41,2.84,7.39,10.08,13.09,15.29,19.57,4.84-6.24,11.56-11.78,14.22-18.84q28.07-74.24,54.54-149.07c3.63-10.19,8.22-14.79,19.75-12.06,13.11,3.1,26.79,3.73,40,6.63,40.8,9,68.85,42.72,69.4,84.43.62,46.8-.11,93.62.27,140.43.17,20.3-11.08,31.89-27.65,40.26Z"/><path class="cls-1" d="M294.86,92.5c17.35,8.62,37,14.45,51.58,26.41,36.71,30.08,45.17,81,23.56,122.44-21.81,41.81-68.9,63.47-113.74,52.3-46.63-11.61-78.8-52.16-78.78-99.3,0-46,32.27-86.79,77.76-98.56,3.13-.81,6.11-2.18,9.15-3.29Z"/><path class="cls-1" d="M279.56,467.55c-12-22.72-19.45-42.54-13.94-65.59,4.08-17,5.78-33.44-7.27-49.16-9.78-11.78-4.05-21.15,11.28-22.56a16.2,16.2,0,0,1,5.06,0c9.82,2.38,19.61,4.92,29.4,7.4-3.16,8.53-7.78,16.84-9.13,25.65-1.88,12.26-3.68,25.36-1.29,37.26C298.43,424.26,292.06,444.56,279.56,467.55Z"/></g></svg>