<svg xmlns="http://www.w3.org/2000/svg" viewBox="0 0 600 697.5"><defs><style>.cls-1{fill:#fff;}</style></defs><title>Icon</title><g id="Upper"><path class="cls-1" d="M480,142.7q-16.12,29.19-47.79,39.62c-4.23.73-8.43,1.68-12.69,2.17-20.86,2.43-39.6-3.19-56.57-15.25a92.4,92.4,0,0,1-22.29-26.88c-1.47-3.87-3.12-7.68-4.39-11.62-5.91-18.33-4.36-36.37,2.35-54.17a90.73,90.73,0,0,1,22.71-30c7.61-5.34,15.48-10.12,24.38-13.1,15.79-5.28,31.61-4.9,47.54-.88,18.35,6.52,33.32,17.37,43.56,34.21,1.54,2.53,3,5.12,4.46,7.69,2.45,7,5,14,6.09,21.37C489.8,112.3,486.62,127.76,480,142.7Z"/><path class="cls-1" d="M434.57,469.66c3.22-1.68,6.3-3.75,9.68-5,10.4-3.78,20.15-2.17,28.41,5.21s11,16.79,8.51,27.63c-.29,1.29-.66,2.56-1,3.84-3.39,6.75-8.6,11.53-15.13,15.33-10.75,6.27-21.2,13-31.77,19.62q-30.88,18-61,37.16A66.27,66.27,0,0,0,361,580.36c-6.55,3.87-13.35,7.39-19.58,11.72-8.21,5.71-16.87,6.91-26.49,5.09-8.14-1.54-16.41-2.3-24.63-3.41l-68.86-9.61q-18.18-2.73-36.34-5.48a4.19,4.19,0,0,0-3.65,1q-17.07,14.43-34.2,28.79-11.36,9.26-22.72,18.53c-4.8,3.92-6,3.76-9.19-1.48q-16-26-32-52l-6.71-11q-18-30.89-37.23-61.08c-3.37-5.7-6.73-11.4-10.13-17.09-3-5-2.7-6.18,2.51-8.72q23.21-11.36,46.41-22.66c14.28-6.33,28.32-13.15,42.2-20.3l29.18-13.94,69.92-7.38,72.56-7.1c16.68,2.15,25.14,9.74,29.38,26.39,1.14,14.93-4.31,26.2-18.15,32.86-4.11,2-8.69,1.85-13,3-22.05,1.59-44,4.06-66,6.52L185,476.54l17.41,27.91c2.79,5.58,7,10.67,7.73,17,.71,6,3.81,7.67,9.15,7.05,13.29,2,26.58,4,39.89,5.93,10.35,1.47,20.74,2.74,31.1,4.1q12,1.86,24.05,3.76a3.92,3.92,0,0,0,2.81-.7l45.2-27.86a157.93,157.93,0,0,0,18.19-11.12Q407.91,486.75,434.57,469.66Z"/><path class="cls-1" d="M524.09,218.83c14.53,19.2,24.11,40.53,27.64,64.45.41,2.77.9,5.53,1.35,8.3.09,4.95.23,9.9.25,14.85q.15,24.56.22,49.1c-.5,4.76-.09,9.57-1.24,14.31a37.65,37.65,0,0,1-34.63,28.61c-4.47.18-8.94.2-13.41.29h-142c-7.29-.06-14.6.07-21.89-.24-16.35-.69-32.85,2.08-49-2.16-15.53-7.37-23.83-19.48-24.19-36.81.78-23.67-.67-47.37,1-71a145.54,145.54,0,0,1,23.41-62.9q3.45-4.51,6.91-9c13.15-14.77,28.28-26.9,46.27-35.4,4.46-2.11,8.05-3.08,11.72,1,.94,1,2.47,1.57,3.73,2.34,3.24,2.94,7.22,4.67,11.1,6.43,20,9.1,40.64,11.5,62,5.55,12.3-2.49,23.08-8.22,32.91-15.76,2.43-1.86,4.24-2.17,7.05-.9a169.35,169.35,0,0,1,31,18.82A233.49,233.49,0,0,1,524.09,218.83Z"/></g></svg>