<svg xmlns="http://www.w3.org/2000/svg" viewBox="0 0 319.99 289.08"><defs><style>.cls-1{fill:#fff;}</style></defs><title>MenuIcon</title><g id="Capa_2" data-name="Capa 2"><g id="BG"><path class="cls-1" d="M159.44,175.51c-42.81,0-85.61.1-128.42,0a30.93,30.93,0,1,1,.11-61.85c29.49-.08,59,0,88.45,0q84.45,0,168.9,0c17.1,0,30.91,13.21,31.49,29.74a31.11,31.11,0,0,1-31.11,32.12C245.72,175.58,202.58,175.51,159.44,175.51Z"/><path class="cls-1" d="M160.28.11c42.14,0,84.27.24,126.41-.11C305.41-.15,317,12.7,319.48,25.59c3.2,16.93-9.66,34.46-26.86,36.11-2.15.21-4.33.24-6.49.24Q160,62,33.81,62C20.06,62,9.56,56.77,3.22,44.44c-9.77-19,3.83-43.22,25.16-44C48.51-.28,68.68.15,88.83.12Q124.55.06,160.28.11Z"/><path class="cls-1" d="M160,289c-42.3,0-84.61-.22-126.91.1-18.4.14-30.19-12.56-32.63-25.77-3.13-16.91,9.88-34.39,27.09-35.95,1.82-.16,3.66-.21,5.49-.21q126.92,0,253.82,0c17.19,0,29.44,9.77,32.58,25.7,3.39,17.16-10,35.15-27.54,35.79-17.3.64-34.63.31-52,.33Q200,289,160,289Z"/></g></g></svg>