<svg xmlns="http://www.w3.org/2000/svg" viewBox="0 0 1057.18 93.68"><defs><style>.cls-1{fill:#ea4335;}.cls-2{fill:#4285f4;}.cls-3{fill:#34a853;}.cls-4{fill:#fbbc05;}.cls-5{fill:#5f6368;}.cls-6{fill:#01224a;}</style></defs><title>poweredBy</title><g id="Capa_2" data-name="Capa 2"><g id="Upper"><path class="cls-1" d="M529.56,24.56h3.38l9.64-9.63.47-4.09A43.29,43.29,0,0,0,472.6,32a5.23,5.23,0,0,1,3.38-.2l19.27-3.18s1-1.63,1.48-1.52a24,24,0,0,1,32.9-2.51Z"/><path class="cls-2" d="M556.3,32a43.38,43.38,0,0,0-13.08-21.1L529.69,24.4a24,24,0,0,1,8.83,19.06v2.4a12,12,0,0,1,0,24.07H514.45l-2.4,2.44V86.8l2.4,2.4h24.07A31.3,31.3,0,0,0,556.3,32Z"/><path class="cls-3" d="M490.34,89.07h24.07V69.8H490.34a12,12,0,0,1-5-1.08l-3.38,1-9.7,9.64-.84,3.38A31.12,31.12,0,0,0,490.34,89.07Z"/><path class="cls-4" d="M490.34,26.56a31.31,31.31,0,0,0-18.89,56.12l14-14a12,12,0,1,1,15.92-15.93l14-14A31.24,31.24,0,0,0,490.34,26.56Z"/><path class="cls-5" d="M634.16,75.61a30.76,30.76,0,0,1-22.31-9.16,29.74,29.74,0,0,1-9.37-22,29.76,29.76,0,0,1,9.37-22A30.72,30.72,0,0,1,634.16,13a29.83,29.83,0,0,1,21.4,8.62l-6,6.12a22.25,22.25,0,0,0-31.27.67,22.12,22.12,0,0,0-6.53,16.06,22.1,22.1,0,0,0,6.53,15.86,22.68,22.68,0,0,0,31.64.37,18,18,0,0,0,4.63-10.52H634.26V41.57H663a27.36,27.36,0,0,1,.34,5.27,27.1,27.1,0,0,1-7.4,20A28.81,28.81,0,0,1,634.16,75.61Zm66.73-5.74a20.69,20.69,0,0,1-28.63,0,19.27,19.27,0,0,1-5.85-14.37,19.26,19.26,0,0,1,5.85-14.37,20.73,20.73,0,0,1,28.63,0,19.3,19.3,0,0,1,5.85,14.37,19.28,19.28,0,0,1-5.88,14.37Zm-22.31-5.65a11,11,0,0,0,15.48.51q.27-.26.51-.51A12,12,0,0,0,698,55.5a12.08,12.08,0,0,0-3.38-8.76,11.13,11.13,0,0,0-15.73-.33l-.33.33a12.08,12.08,0,0,0-3.38,8.76,12.06,12.06,0,0,0,3.42,8.72Zm66.33,5.65a20.7,20.7,0,0,1-28.64,0,19.3,19.3,0,0,1-5.84-14.37,19.29,19.29,0,0,1,5.84-14.37,20.7,20.7,0,0,1,28.64,0,19.33,19.33,0,0,1,5.85,14.37A19.31,19.31,0,0,1,744.91,69.87ZM722.6,64.22a11,11,0,0,0,15.48.51l.51-.51A12.08,12.08,0,0,0,742,55.5a12.08,12.08,0,0,0-3.38-8.76,11.13,11.13,0,0,0-15.73-.33l-.33.33a12.08,12.08,0,0,0-3.38,8.76,12,12,0,0,0,3.41,8.72Zm51.25,29.45a17.75,17.75,0,0,1-11.26-3.59A20.76,20.76,0,0,1,756,81.77l7.71-3.22a13,13,0,0,0,3.82,5,9.62,9.62,0,0,0,6.32,2.13,10.15,10.15,0,0,0,7.88-3,12.36,12.36,0,0,0,2.8-8.79V71h-.3a12.88,12.88,0,0,1-10.58,4.56,18.3,18.3,0,0,1-13.52-5.88,19.41,19.41,0,0,1-5.79-14.16,19.66,19.66,0,0,1,5.79-14.27,18.31,18.31,0,0,1,13.52-5.92,14.56,14.56,0,0,1,6.22,1.39,12.56,12.56,0,0,1,4.39,3.21h.31V36.7H793v36a21,21,0,0,1-5.37,15.73A19,19,0,0,1,773.85,93.67Zm.61-26a9.81,9.81,0,0,0,7.64-3.38,12.52,12.52,0,0,0,3.07-8.65,12.77,12.77,0,0,0-3.07-8.83,9.81,9.81,0,0,0-7.64-3.38,10.48,10.48,0,0,0-7.92,3.38,12.38,12.38,0,0,0-3.38,8.76,12.1,12.1,0,0,0,3.38,8.65A10.47,10.47,0,0,0,774.46,67.7Zm33.43-52.4V74.4h-8.82V15.3ZM832.1,75.61a19.22,19.22,0,0,1-14.24-5.78,19.58,19.58,0,0,1-5.71-14.33A19.83,19.83,0,0,1,817.66,41a18.15,18.15,0,0,1,13.52-5.65,17.22,17.22,0,0,1,6.76,1.32,16.06,16.06,0,0,1,5.18,3.38,24.1,24.1,0,0,1,3.38,4.09,24.45,24.45,0,0,1,2,4l.91,2.3-27,11.12a10.13,10.13,0,0,0,9.74,6.08,11.52,11.52,0,0,0,9.9-5.57l6.76,4.56a22.13,22.13,0,0,1-6.49,6.15A18.39,18.39,0,0,1,832.1,75.61ZM820.8,54.89l18-7.47A6.2,6.2,0,0,0,836,44.34a9.15,9.15,0,0,0-4.63-1.18,10.44,10.44,0,0,0-7.27,3.21A10.75,10.75,0,0,0,820.8,54.89Z"/><path class="cls-5" d="M895.62,75.61a27.85,27.85,0,0,1-28.33-27.37c0-.38,0-.75,0-1.13a27.84,27.84,0,0,1,27.2-28.49h1.13a25.23,25.23,0,0,1,20,8.93l-4.87,4.73a18.41,18.41,0,0,0-15.15-6.93,20.68,20.68,0,0,0-15,6,21.06,21.06,0,0,0-6.12,15.75,21.07,21.07,0,0,0,6.12,15.76,20.63,20.63,0,0,0,15,6A21.47,21.47,0,0,0,912.56,61l4.86,4.87A26.64,26.64,0,0,1,908.06,73,28.71,28.71,0,0,1,895.62,75.61Z"/><path class="cls-5" d="M930.51,74.4h-7V19.8h7Z"/><path class="cls-5" d="M941.93,41.54a19.56,19.56,0,0,1,27.59,0,19.76,19.76,0,0,1,5.41,14.19,19.22,19.22,0,1,1-38.41,0A19.81,19.81,0,0,1,941.93,41.54Zm5.21,24a11.8,11.8,0,0,0,16.68.46l.46-.46a13.57,13.57,0,0,0,3.62-9.81,13.55,13.55,0,0,0-3.62-9.8,11.8,11.8,0,0,0-16.68-.46c-.16.15-.31.3-.46.46a13.55,13.55,0,0,0-3.62,9.8,13.51,13.51,0,0,0,3.65,9.77Z"/><path class="cls-5" d="M1013.71,74.4h-6.77V69.22h-.2a13,13,0,0,1-4.93,4.67,13.85,13.85,0,0,1-6.94,1.86,13.17,13.17,0,0,1-10.61-4.26,16.93,16.93,0,0,1-3.62-11.43v-23h7V58.78q0,10.44,9.23,10.44a8.58,8.58,0,0,0,7.1-3.38,12.78,12.78,0,0,0,2.74-8.08V37.07h7Z"/><path class="cls-5" d="M1037.47,75.61A16.44,16.44,0,0,1,1025,69.9a20.33,20.33,0,0,1-5.24-14.17A20.3,20.3,0,0,1,1025,41.57a16.44,16.44,0,0,1,12.51-5.71,15.75,15.75,0,0,1,7.64,1.82,12.91,12.91,0,0,1,5.07,4.57h.31l-.31-5.18V19.8h7V74.4h-6.76V69.22h-.3a13,13,0,0,1-5.08,4.57A15.82,15.82,0,0,1,1037.47,75.61Zm1.15-6.39a11.14,11.14,0,0,0,8.42-3.65,13.69,13.69,0,0,0,3.38-9.84A13.67,13.67,0,0,0,1047,45.9a11.43,11.43,0,0,0-16.14-.77c-.27.25-.52.5-.76.77a13.5,13.5,0,0,0-3.39,9.8,13.49,13.49,0,0,0,3.39,9.8A11.11,11.11,0,0,0,1038.62,69.22Z"/><path class="cls-6" d="M40,40.05c0,11-8,17.61-21.14,17.61h-15V74.83H0V22.35H18.82C32,22.35,40,29,40,40.05Zm-3.9,0c0-9.08-6-14.25-17.24-14.25h-15V54.21h15C30.06,54.21,36.06,49,36.06,40.05Z"/><path class="cls-6" d="M47.15,55.26c0-11.62,8.32-19.86,19.57-19.86s19.56,8.24,19.56,19.86S78,75.13,66.72,75.13,47.15,66.88,47.15,55.26Zm35.31,0c0-9.82-6.75-16.49-15.74-16.49S51,45.44,51,55.26s6.74,16.5,15.74,16.5S82.46,65.08,82.46,55.26Z"/><path class="cls-6" d="M152.7,35.7,137.86,74.83h-3.53l-13.19-34-13.27,34h-3.45L89.58,35.7h3.6l13,34.93L119.57,35.7h3.22l13.27,34.86L149.25,35.7Z"/><path class="cls-6" d="M193.33,56.16H159.67c.37,9.3,7.2,15.6,16.57,15.6a15.78,15.78,0,0,0,12.52-5.48l2.17,2.48c-3.45,4.2-8.85,6.37-14.77,6.37-11.84,0-20.16-8.25-20.16-19.87s8-19.86,18.74-19.86,18.66,8.09,18.66,19.71C193.4,55.41,193.33,55.79,193.33,56.16Zm-33.59-2.92h30c-.52-8.47-6.67-14.54-15-14.54S160.34,44.69,159.74,53.24Z"/><path class="cls-6" d="M223.54,35.4v3.67c-.3,0-.6-.07-.9-.07-8.7,0-13.87,5.77-13.87,15.44V74.83H205V35.7h3.6v8.54C211,38.55,216.19,35.4,223.54,35.4Z"/><path class="cls-6" d="M266.57,56.16H232.91c.37,9.3,7.19,15.6,16.56,15.6A15.77,15.77,0,0,0,262,66.28l2.18,2.48c-3.45,4.2-8.85,6.37-14.77,6.37-11.85,0-20.17-8.25-20.17-19.87s8-19.86,18.74-19.86,18.67,8.09,18.67,19.71C266.64,55.41,266.57,55.79,266.57,56.16ZM233,53.24h30c-.53-8.47-6.67-14.54-15-14.54S233.58,44.69,233,53.24Z"/><path class="cls-6" d="M313,19.2V74.83h-3.67V65.61c-3.08,6.07-9,9.52-16,9.52-11,0-19.35-8.17-19.35-19.87s8.33-19.86,19.35-19.86a17.54,17.54,0,0,1,16,9.37V19.2Zm-3.75,36.06c0-9.82-6.74-16.49-15.74-16.49s-15.74,6.67-15.74,16.49,6.74,16.5,15.74,16.5S309.29,65.08,309.29,55.26Z"/><path class="cls-6" d="M387.1,55.26c0,11.7-8.32,19.87-19.34,19.87a17.47,17.47,0,0,1-16-9.52v9.22h-3.6V19.2h3.75V44.62a17.51,17.51,0,0,1,15.89-9.22C378.78,35.4,387.1,43.49,387.1,55.26Zm-3.75,0c0-9.82-6.82-16.49-15.81-16.49s-15.75,6.67-15.75,16.49,6.75,16.5,15.75,16.5S383.35,65.08,383.35,55.26Z"/><path class="cls-6" d="M429,35.7,408.91,80.15c-3.15,7.2-7,9.52-12.22,9.52a12.52,12.52,0,0,1-9.07-3.52l1.88-2.85a9.5,9.5,0,0,0,7.27,3.07c3.6,0,6.22-1.65,8.62-7l2.1-4.72-17.62-39h4l15.67,35,15.67-35Z"/></g></g></svg>