<svg xmlns="http://www.w3.org/2000/svg" viewBox="0 0 600 697.5"><defs><style>.cls-1{fill:#fff;}</style></defs><title>Icon</title><g id="Upper"><path class="cls-1" d="M313.14,69.5c8.67,1.8,17.52,3,26,5.49C385.2,88.68,419.82,131.58,422,181.24c3.9,89.84-36.49,157.22-109.35,206.77-3.17,2.16-10.41,2-13.69-.22-58.24-38.93-99.56-90-114.15-160.27-15-72.1,26.38-137.92,97.62-154.46,6.46-1.5,13.05-2.39,19.58-3.56Zm-10.5,182.6a60.1,60.1,0,0,0-.05-120.2c-32.92,0-60.15,27.26-60.24,60.24S269.28,252.06,302.64,252.1Z"/><path class="cls-1" d="M61.51,298.86c2.8-2.85,5.08-7,8.48-8.33,23.94-9.68,48.12-18.79,72.91-28.35l9.21,26.2c-18.64,7.24-36.43,14.4-54.43,21-5.63,2.06-8.29,4.59-8.27,11q.32,122.43.19,244.86a39.89,39.89,0,0,0,.79,5.21c4.07-1.81,7.75-3.28,11.28-5.06,29.1-14.68,58-29.73,87.34-43.92,8.25-4,10.66-8.92,10.56-17.78-.47-41.91-.21-83.84-.21-125.77V367.17l-1.3,2.35c8.77,7.17,17.9,14,26.06,21.75,2.36,2.25,2.67,7.41,2.69,11.24q.28,51.75.05,103.51c0,5.42.17,9.58,6.51,12.26,40.55,17.16,80.89,34.79,121.31,52.22,1,.42,2.13.38,4.34.74.18-4.07.5-7.93.51-11.79,0-43.78.34-87.57-.23-131.34-.12-9.57,2.41-16.05,10.27-21.37,5.68-3.84,10.47-9,17.25-14.95V571.27c10.19-5.14,18.65-9.44,27.13-13.7,25.11-12.62,50.32-25,75.2-38.07,3.43-1.8,7.41-6.74,7.43-10.25.4-77.54.29-155.08.23-232.62,0-1.39-.49-2.78-1-5.58L455.84,285.9c3.09-10.78,5.51-20.64,8.89-30.15.88-2.46,4.49-4.47,7.28-5.65,9.19-3.89,18.77-6.9,27.85-11,10.29-4.68,18.46-3.27,24.82,6.34v282.8c-4.59,4-8.61,9.16-13.88,11.86-45,23-90.18,45.59-135.31,68.3h-6.68c-.42-.56-.72-1.41-1.28-1.65q-74.26-32.31-148.65-64.36a13.62,13.62,0,0,0-10.19.37c-43.21,21.7-86.27,43.71-129.37,65.64H61.51Z"/></g></svg>