<svg xmlns="http://www.w3.org/2000/svg" viewBox="0 0 1188 297"><defs><style>.cls-1{fill:#01224a;}.cls-2{fill:#fff;}</style></defs><title>Pleca</title><g id="Middle"><path class="cls-1" d="M1022.25,177H165.75A80.75,80.75,0,0,0,85,257.75V297H1103V257.75A80.75,80.75,0,0,0,1022.25,177Z"/></g><g id="Text"><path class="cls-2" d="M129.69,224.77h6.44V238.4h14.34V224.77h6.43v34.12h-6.43V244.5H136.13v14.39h-6.44Z"/><path class="cls-2" d="M173.73,224.77h7.34l12.82,34.12h-7.1L184,250.74H170.82L168,258.89h-7.1Zm8.15,20.06-3-8.53-1.24-4.15h-.38L176,236.3l-3.05,8.53Z"/><path class="cls-2" d="M226.77,253.41a17,17,0,0,1-6,4.65,19.08,19.08,0,0,1-14.75.21,17.32,17.32,0,0,1-9.41-9.41,18.6,18.6,0,0,1,0-14.06,17.32,17.32,0,0,1,9.41-9.41,18,18,0,0,1,7.08-1.39,17.23,17.23,0,0,1,7.22,1.43,16.92,16.92,0,0,1,5.55,4.15L221.38,234a12,12,0,0,0-3.5-2.82,10,10,0,0,0-4.69-1,11.93,11.93,0,0,0-4.48.83,10.83,10.83,0,0,0-3.65,2.36,11.18,11.18,0,0,0-2.45,3.69,13.33,13.33,0,0,0,0,9.68,11.18,11.18,0,0,0,2.45,3.69,10.83,10.83,0,0,0,3.65,2.36,11.93,11.93,0,0,0,4.48.83,10.8,10.8,0,0,0,5.07-1.16,12.59,12.59,0,0,0,3.94-3.32Z"/><path class="cls-2" d="M231.92,224.77h6.43V239.4h.38l12.49-14.63H259v.38l-12.35,14.11,13.63,19.25v.38h-7.86l-10.15-14.53-3.91,4.52v10h-6.43Z"/><path class="cls-2" d="M273.76,224.77h7.34l12.82,34.12h-7.1L284,250.74H270.85L268,258.89h-7.1Zm8.15,20.06-3.05-8.53-1.24-4.15h-.38L276,236.3,273,244.83Z"/><path class="cls-2" d="M302.07,258.89v-28h-9.53v-6.1H318v6.1H308.5v28Z"/><path class="cls-2" d="M322.61,224.77H329V238.4h14.35V224.77h6.43v34.12h-6.43V244.5H329v14.39h-6.43Z"/><path class="cls-2" d="M372.36,259.65a17.94,17.94,0,0,1-7.07-1.38,17.24,17.24,0,0,1-9.39-9.46,18.59,18.59,0,0,1,0-14,17.24,17.24,0,0,1,9.39-9.46,18.7,18.7,0,0,1,14.15,0,17.28,17.28,0,0,1,5.65,3.79,17.5,17.5,0,0,1,3.74,5.67,18.59,18.59,0,0,1,0,14,17.5,17.5,0,0,1-3.74,5.67,17.28,17.28,0,0,1-5.65,3.79A18,18,0,0,1,372.36,259.65Zm0-6.1a11.58,11.58,0,0,0,4.46-.85,11.3,11.3,0,0,0,3.62-2.39,10.88,10.88,0,0,0,2.43-3.69,13.48,13.48,0,0,0,0-9.58,10.79,10.79,0,0,0-2.43-3.69,11.3,11.3,0,0,0-3.62-2.39,12.1,12.1,0,0,0-8.91,0,11.2,11.2,0,0,0-3.62,2.39,10.67,10.67,0,0,0-2.44,3.69,13.48,13.48,0,0,0,0,9.58,10.76,10.76,0,0,0,2.44,3.69,11.2,11.2,0,0,0,3.62,2.39A11.53,11.53,0,0,0,372.36,253.55Z"/><path class="cls-2" d="M395.38,224.77h7.48l13.73,22.87H417l-.38-6.57v-16.3H423v34.12h-6.77l-14.49-24.16h-.38l.38,6.57v17.59h-6.34Z"/><path class="cls-2" d="M440.32,224.77h13.35a11.91,11.91,0,0,1,4.09.69,10.24,10.24,0,0,1,3.32,1.91,9,9,0,0,1,2.21,2.83,7.67,7.67,0,0,1,.81,3.48,7.58,7.58,0,0,1-1.31,4.55,8.66,8.66,0,0,1-3.26,2.79v.38a9.33,9.33,0,0,1,4.22,3,7.9,7.9,0,0,1,1.59,5,8.54,8.54,0,0,1-.88,3.93,9.14,9.14,0,0,1-2.41,3,11,11,0,0,1-3.55,1.9,13.69,13.69,0,0,1-4.36.67H440.32Zm12.87,13.91a4.66,4.66,0,0,0,3.45-1.21,4,4,0,0,0,0-5.74,4.44,4.44,0,0,0-3.29-1.2h-6.62v8.15Zm.71,14.3a5.22,5.22,0,0,0,3.72-1.21,4.1,4.1,0,0,0,1.29-3.13,4.25,4.25,0,0,0-1.31-3.17,5.42,5.42,0,0,0-3.89-1.26h-6.95V253Z"/><path class="cls-2" d="M470.3,224.77h13.34a12,12,0,0,1,4.1.69,10.19,10.19,0,0,1,3.31,1.91,8.94,8.94,0,0,1,2.22,2.83,8.25,8.25,0,0,1-.5,8A8.68,8.68,0,0,1,489.5,241v.38a9.28,9.28,0,0,1,4.22,3,7.85,7.85,0,0,1,1.6,5,8.67,8.67,0,0,1-.88,3.93,9.14,9.14,0,0,1-2.41,3,11.1,11.1,0,0,1-3.55,1.9,13.69,13.69,0,0,1-4.36.67H470.3Zm12.87,13.91a4.66,4.66,0,0,0,3.45-1.21,4,4,0,0,0,1.22-2.89,3.89,3.89,0,0,0-1.19-2.85,4.45,4.45,0,0,0-3.29-1.2h-6.63v8.15Zm.71,14.3a5.22,5.22,0,0,0,3.72-1.21,4.09,4.09,0,0,0,1.28-3.13,4.21,4.21,0,0,0-1.31-3.17,5.38,5.38,0,0,0-3.88-1.26h-7V253Z"/><path class="cls-2" d="M496.94,224.77h7L511,245.31l1.24,4.38h.38l1.34-4.38,7.33-20.54h7l-12.44,34.12H509Z"/><path class="cls-2" d="M538.83,224.77h7.34L559,258.89h-7.1l-2.81-8.15H535.92l-2.81,8.15H526ZM547,244.83l-3.05-8.53-1.24-4.15h-.38l-1.24,4.15L538,244.83Z"/><path class="cls-2" d="M572.71,241.35h16.16v5.53H572.71Z"/><path class="cls-2" d="M614,224.77h7.34l12.82,34.12H627l-2.81-8.15H611.08l-2.82,8.15h-7.1Zm8.15,20.06-3-8.53-1.24-4.15h-.38l-1.24,4.15-3.05,8.53Z"/><path class="cls-2" d="M638.15,224.77h12.43a12.82,12.82,0,0,1,4.67.81,10.65,10.65,0,0,1,3.6,2.24,9.88,9.88,0,0,1,2.32,3.41,11.21,11.21,0,0,1,.8,4.31,9,9,0,0,1-.57,3.21,9.43,9.43,0,0,1-1.57,2.72,11.93,11.93,0,0,1-2.33,2.15,11.78,11.78,0,0,1-2.82,1.45l0,.33,9.15,13.11v.38H656.4l-8.82-12.82h-3v12.82h-6.43Zm12.39,15.39a5,5,0,0,0,3.6-1.33,4.49,4.49,0,0,0,1.4-3.39,5.06,5.06,0,0,0-.31-1.76,4.4,4.4,0,0,0-2.48-2.6,5.24,5.24,0,0,0-2.12-.4h-6v9.48Z"/><path class="cls-2" d="M674.94,258.89v-28h-9.53v-6.1H690.9v6.1h-9.53v28Z"/><path class="cls-2" d="M695.48,224.77h6.43v34.12h-6.43Z"/><path class="cls-2" d="M708.77,224.77h6.44v28h14.44v6.1H708.77Z"/><path class="cls-2" d="M734.22,224.77h6.44v28H755.1v6.1H734.22Z"/><path class="cls-2" d="M766.11,230.87v7.91h13.67v6.1H766.11v7.91h15.2v6.1H759.67V224.77h21.64v6.1Z"/><path class="cls-2" d="M787.22,224.77h12.44a12.9,12.9,0,0,1,4.67.81,10.71,10.71,0,0,1,3.59,2.24,9.61,9.61,0,0,1,2.32,3.41,11.21,11.21,0,0,1,.81,4.31,8.75,8.75,0,0,1-.58,3.21,9.43,9.43,0,0,1-1.57,2.72,11.65,11.65,0,0,1-2.33,2.15,11.78,11.78,0,0,1-2.82,1.45l0,.33,9.15,13.11v.38h-7.39l-8.82-12.82h-3v12.82h-6.43Zm12.39,15.39a5,5,0,0,0,3.6-1.33,4.49,4.49,0,0,0,1.4-3.39,5.06,5.06,0,0,0-.31-1.76,4.32,4.32,0,0,0-.93-1.53,4.61,4.61,0,0,0-1.55-1.07,5.21,5.21,0,0,0-2.12-.4h-6.05v9.48Z"/><path class="cls-2" d="M816.76,224.77h6.44v34.12h-6.44Zm.39-2.67,2-6.48h7.29l-4.29,6.48Z"/><path class="cls-2" d="M840,224.77h7.34l12.82,34.12h-7.1l-2.81-8.15H837.11l-2.81,8.15h-7.1Zm8.15,20.06-3-8.53-1.24-4.15h-.38l-1.24,4.15-3,8.53Z"/><path class="cls-2" d="M874.67,258.89V224.77h12a13.1,13.1,0,0,1,4.55.78,11.43,11.43,0,0,1,3.69,2.22,10.3,10.3,0,0,1,2.48,3.41,10.41,10.41,0,0,1,.91,4.36,10.54,10.54,0,0,1-.91,4.41,10.26,10.26,0,0,1-2.48,3.4,11.09,11.09,0,0,1-3.69,2.22,13.11,13.11,0,0,1-4.55.79H881.1v12.53Zm12.1-18.63a4.85,4.85,0,0,0,3.81-1.43,4.78,4.78,0,0,0,1.29-3.29,5.06,5.06,0,0,0-.31-1.76,3.92,3.92,0,0,0-.95-1.51,4.58,4.58,0,0,0-1.6-1,6.07,6.07,0,0,0-2.24-.38H881.1v9.39Z"/><path class="cls-2" d="M909.31,230.87v7.91H923v6.1H909.31v7.91h15.21v6.1H902.88V224.77h21.64v6.1Z"/><path class="cls-2" d="M940.86,259.65a13.84,13.84,0,0,1-4.19-.62,11.88,11.88,0,0,1-3.67-1.86,12.87,12.87,0,0,1-2.91-3,14.59,14.59,0,0,1-2-4.17l6.05-2.38a9.15,9.15,0,0,0,2.34,4.26,5.86,5.86,0,0,0,4.38,1.69,6.87,6.87,0,0,0,1.93-.26,5.66,5.66,0,0,0,1.67-.76,3.91,3.91,0,0,0,1.17-1.26,3.62,3.62,0,0,0,.42-1.77,4.24,4.24,0,0,0-.33-1.71,3.87,3.87,0,0,0-1.12-1.43,9.55,9.55,0,0,0-2-1.29,32.57,32.57,0,0,0-3.12-1.29l-2.1-.76a16.05,16.05,0,0,1-2.78-1.29,12.14,12.14,0,0,1-2.55-1.95,9.65,9.65,0,0,1-1.89-2.69,8.11,8.11,0,0,1-.74-3.51,9.06,9.06,0,0,1,.79-3.74,9.27,9.27,0,0,1,2.24-3.05,10.72,10.72,0,0,1,3.48-2,13.11,13.11,0,0,1,4.5-.74,13,13,0,0,1,4.46.7,11,11,0,0,1,3.19,1.76,9.56,9.56,0,0,1,2.12,2.36,11.27,11.27,0,0,1,1.19,2.43l-5.67,2.38a5.9,5.9,0,0,0-1.74-2.57,5,5,0,0,0-3.45-1.14,5.88,5.88,0,0,0-3.48,1,3,3,0,0,0-1.38,2.55A3.23,3.23,0,0,0,937,236a14.85,14.85,0,0,0,4.24,2.07l2.15.72a24.22,24.22,0,0,1,3.74,1.64,11.67,11.67,0,0,1,2.91,2.22,8.91,8.91,0,0,1,1.86,2.93,10.52,10.52,0,0,1,.64,3.79,9.39,9.39,0,0,1-1.07,4.6,9.89,9.89,0,0,1-2.74,3.16A11.86,11.86,0,0,1,945,259,14.18,14.18,0,0,1,940.86,259.65Z"/><path class="cls-2" d="M967.31,224.77h7.34l12.82,34.12h-7.1l-2.81-8.15H964.41l-2.82,8.15h-7.1Zm8.15,20.06-3.05-8.53-1.24-4.15h-.38l-1.24,4.15-3,8.53Z"/><path class="cls-2" d="M991.48,224.77H1003a20.2,20.2,0,0,1,7.29,1.24,15.69,15.69,0,0,1,5.53,3.5,15.27,15.27,0,0,1,3.5,5.41,20.32,20.32,0,0,1,0,13.87,15.06,15.06,0,0,1-3.5,5.38,15.78,15.78,0,0,1-5.53,3.48,20.2,20.2,0,0,1-7.29,1.24H991.48Zm11.24,28a14.22,14.22,0,0,0,5-.79,9.61,9.61,0,0,0,3.57-2.21,9.13,9.13,0,0,0,2.15-3.46,14.62,14.62,0,0,0,0-9,9.05,9.05,0,0,0-2.15-3.46,9.76,9.76,0,0,0-3.57-2.22,14.47,14.47,0,0,0-5-.78h-4.81v21.92Z"/><path class="cls-2" d="M1034.27,224.77h7.34l12.82,34.12h-7.1l-2.81-8.15h-13.16l-2.81,8.15h-7.1Zm8.15,20.06-3.05-8.53-1.24-4.15h-.38l-1.24,4.15-3,8.53Z"/></g></svg>