<svg xmlns="http://www.w3.org/2000/svg" viewBox="0 0 250 250"><defs><style>.cls-1{fill:#01224a;}.cls-2{fill:#fff;}</style></defs><title>LogoFondo</title><g id="Capa_2" data-name="Capa 2"><g id="BG"><circle class="cls-1" cx="125" cy="125" r="125"/></g><g id="Upper"><path class="cls-2" d="M119.85,223c5.53-5.89,9.05-24.64,6.16-31.18A98.54,98.54,0,0,1,119.85,223Z"/><path class="cls-2" d="M129.87,185.35v-3.41l-.06,3.41Z"/><path class="cls-2" d="M181.31,34.92a21.69,21.69,0,0,0-4.21-.66c-12.28,0-24.56,0-37.19,0a.23.23,0,0,0-.21.31c2.88,7.61,5.65,15,8.56,22.42.23.57,1.48,1,2.26,1,4.82.09,9.64,0,14.46,0a23.05,23.05,0,0,1,22.49,27.45c-2.14,11-11.55,18.57-23.35,18.59q-30.94.06-61.87,0H99.93a.22.22,0,0,0-.23.22v81h.15c0-5.74,0-11.47-.06-17.21,0-1.65.41-2.23,2.19-2.21,9.09.1,18.18,0,27.66,0a.23.23,0,0,0,.23-.23V128.33a.22.22,0,0,1,.22-.23h2.81c13,0,25.93,0,38.89,0a48.69,48.69,0,0,0,10.5-1.1,47.08,47.08,0,0,0-1-92Z"/><path class="cls-2" d="M106.25,49.59a.22.22,0,0,1,.42,0c.43,1.13.75,1.94,1.06,2.77,5.25,14.06,10.54,28.1,15.69,42.2.7,1.92,1.65,2.44,3.59,2.42,8.45-.1,16.91,0,25.37,0h2.87c-.19-.75-.24-1.06-.34-1.34q-15-40.19-30-80.37c-.53-1.44-1.35-1.64-2.66-1.63-10.51,0-21,.05-31.53,0a2.56,2.56,0,0,0-2.91,2Q59.6,91.26,31.29,166.94a12.49,12.49,0,0,0-.39,1.55.23.23,0,0,0,.22.28c9.57,0,18.88,0,28.19,0a3.31,3.31,0,0,0,3.14-2.17Q82,114.2,101.59,61.79C103.07,57.84,104.6,53.9,106.25,49.59Z"/><path class="cls-2" d="M168,135.3c-3.95-.1-7.9-.05-11.85-.05H138.85c.23.81.3,1.18.44,1.54,3.78,10.13,7.6,20.24,11.32,30.39.53,1.43,1.39,1.61,2.69,1.61,9.08,0,18.16,0,27.24,0,.43,0,.86-.05,1.43-.09a.23.23,0,0,0,.2-.31c-4.08-10.88-8-21.5-12.1-32.07C169.87,135.76,168.74,135.31,168,135.3Z"/><path class="cls-2" d="M102,165.93c-1.78,0-2.2.56-2.19,2.21,0,5.74.07,11.47.06,17.21,0,2.73,0,5.46-.06,8.19-.14,10.63,1.74,20.78,6.53,30.3a50.43,50.43,0,0,0,8.61,12.52.23.23,0,0,0,.35,0c2.17-3.09,4.34-6,6.25-9a47.28,47.28,0,0,0,7.6-22.18c.45-6.59.56-13.2.68-19.82l.06-3.41c0-.3,0-.6,0-.9.1-4.94,0-9.88,0-15.06h0C120.3,166,111.14,166,102,165.93ZM119.85,223A98.54,98.54,0,0,0,126,191.83C128.9,198.37,125.38,217.12,119.85,223Z"/></g></g></svg>