<!-- <svg xmlns="http://www.w3.org/2000/svg" viewBox="0 0 264 250"><defs><style>.cls-1{fill:none;}.cls-2{fill:#c98200;}</style></defs><title>LogoAP</title><g id="Upper"><path class="cls-1" d="M126.93,222.94c5.54-5.89,9.06-24.64,6.17-31.17A98.83,98.83,0,0,1,126.93,222.94Z"/><path d="M137,185.29v-3.41l-.06,3.41Z"/><path d="M188.42,34.86a20.28,20.28,0,0,0-4.2-.66c-12.4-.06-24.8,0-37.55,0,2.92,7.71,5.73,15.25,8.69,22.72.22.57,1.48,1,2.26,1,4.82.09,9.64,0,14.47,0a23.06,23.06,0,0,1,22.5,27.45C192.44,96.45,183,104,171.22,104q-30.94.06-61.9,0h-2.55v81.26h.15c0-5.74,0-11.48-.06-17.22,0-1.65.41-2.23,2.19-2.21,9.17.11,18.33,0,27.9,0V128h3c13,0,26.09,0,39.13,0a47,47,0,0,0,9.3-93.14Z"/><path d="M113.53,49c.54,1.41.91,2.36,1.27,3.31,5.25,14.06,10.54,28.11,15.7,42.2.7,1.92,1.66,2.45,3.59,2.42,8.46-.09,16.92,0,25.38,0h2.87c-.18-.75-.23-1.06-.33-1.35q-15-40.17-30-80.36c-.54-1.45-1.36-1.64-2.66-1.64-10.52,0-21,.06-31.56,0a2.57,2.57,0,0,0-2.91,2Q66.65,91.19,38.32,166.88a16.14,16.14,0,0,0-.45,1.82c9.76,0,19.24,0,28.73,0a2.53,2.53,0,0,0,2.85-2Q89,114.2,108.66,61.72C110.2,57.6,111.8,53.5,113.53,49Z"/><path class="cls-2" d="M175.14,135.23c-3.95-.09-7.9,0-11.85,0H145.94c.23.8.3,1.18.44,1.53,3.78,10.13,7.6,20.25,11.33,30.39.53,1.44,1.39,1.62,2.69,1.61,9.09,0,18.17,0,27.25,0,.5,0,1-.06,1.74-.11-4.12-11-8.11-21.69-12.21-32.36C177,135.7,175.85,135.25,175.14,135.23Z"/><path class="cls-2" d="M109.05,165.86c-1.78,0-2.2.56-2.19,2.21,0,5.74.07,11.48.06,17.22,0,2.73,0,5.46-.06,8.19-.15,10.63,1.74,20.78,6.53,30.29a50.41,50.41,0,0,0,8.81,12.73c2.23-3.18,4.45-6.11,6.41-9.21a47.48,47.48,0,0,0,7.61-22.18c.45-6.59.56-13.21.67-19.82l.06-3.41c0-.31,0-.61,0-.91.1-4.94,0-9.88,0-15.06h0C127.38,165.91,118.22,166,109.05,165.86Zm17.88,57.08a98.83,98.83,0,0,0,6.17-31.17C136,198.3,132.47,217.05,126.93,222.94Z"/></g></svg> -->
<svg xmlns="http://www.w3.org/2000/svg" viewBox="0 0 264 250"><defs><style>.cls-1{fill:#fff;}</style></defs><title>bl</title><g id="Upper"><path class="cls-1" d="M126.93,222.94c5.54-5.89,9.06-24.64,6.17-31.17A98.83,98.83,0,0,1,126.93,222.94Z"/><path class="cls-1" d="M137,185.29v-3.41l-.06,3.41Z"/><path class="cls-1" d="M188.42,34.86a20.28,20.28,0,0,0-4.2-.66c-12.4-.06-24.8,0-37.55,0,2.92,7.71,5.73,15.25,8.69,22.72.22.57,1.48,1,2.26,1,4.82.09,9.64,0,14.47,0a23.06,23.06,0,0,1,22.5,27.45C192.44,96.45,183,104,171.22,104q-30.94.06-61.9,0h-2.55v81.26h.15c0-5.74,0-11.48-.06-17.22,0-1.65.41-2.23,2.19-2.21,9.17.11,18.33,0,27.9,0V128h3c13,0,26.09,0,39.13,0a47,47,0,0,0,9.3-93.14Z"/><path class="cls-1" d="M113.53,49c.54,1.41.91,2.36,1.27,3.31,5.25,14.06,10.54,28.11,15.7,42.2.7,1.92,1.66,2.45,3.59,2.42,8.46-.09,16.92,0,25.38,0h2.87c-.18-.75-.23-1.06-.33-1.35q-15-40.17-30-80.36c-.54-1.45-1.36-1.64-2.66-1.64-10.52,0-21,.06-31.56,0a2.57,2.57,0,0,0-2.91,2Q66.65,91.19,38.32,166.88a16.14,16.14,0,0,0-.45,1.82c9.76,0,19.24,0,28.73,0a2.53,2.53,0,0,0,2.85-2Q89,114.2,108.66,61.72C110.2,57.6,111.8,53.5,113.53,49Z"/><path class="cls-1" d="M175.14,135.23c-3.95-.09-7.9,0-11.85,0H145.94c.23.8.3,1.18.44,1.53,3.78,10.13,7.6,20.25,11.33,30.39.53,1.44,1.39,1.62,2.69,1.61,9.09,0,18.17,0,27.25,0,.5,0,1-.06,1.74-.11-4.12-11-8.11-21.69-12.21-32.36C177,135.7,175.85,135.25,175.14,135.23Z"/><path class="cls-1" d="M109.05,165.86c-1.78,0-2.2.56-2.19,2.21,0,5.74.07,11.48.06,17.22,0,2.73,0,5.46-.06,8.19-.15,10.63,1.74,20.78,6.53,30.29a50.41,50.41,0,0,0,8.81,12.73c2.23-3.18,4.45-6.11,6.41-9.21a47.48,47.48,0,0,0,7.61-22.18c.45-6.59.56-13.21.67-19.82l.06-3.41c0-.31,0-.61,0-.91.1-4.94,0-9.88,0-15.06h0C127.38,165.91,118.22,166,109.05,165.86Zm17.88,57.08a98.83,98.83,0,0,0,6.17-31.17C136,198.3,132.47,217.05,126.93,222.94Z"/></g></svg>