<svg xmlns="http://www.w3.org/2000/svg" viewBox="0 0 1286.62 70.47"><defs><style>.cls-1{fill:#fff;}.cls-2{fill:#ff5a79;}</style></defs><title>createdby</title><g id="Capa_2" data-name="Capa 2"><g id="Upper"><path class="cls-1" d="M0,29.39C0,14.09,11.62,2.77,27.21,2.77c7.42,0,14.1,2.4,18.67,7.28l-2.4,2.47C39,8.1,33.51,6.3,27.36,6.3,13.94,6.3,3.82,16.19,3.82,29.39S13.94,52.48,27.36,52.48a22.05,22.05,0,0,0,16.12-6.3l2.4,2.47C41.31,53.53,34.63,56,27.21,56,11.62,56,0,44.68,0,29.39Z"/><path class="cls-1" d="M76,16.19v3.68c-.3,0-.6-.08-.9-.08-8.69,0-13.87,5.77-13.87,15.44v20.4H57.5V16.49h3.59V25C63.49,19.34,68.67,16.19,76,16.19Z"/><path class="cls-1" d="M119,37H85.38c.38,9.29,7.2,15.59,16.57,15.59a15.79,15.79,0,0,0,12.52-5.47l2.17,2.47c-3.45,4.2-8.84,6.37-14.77,6.37-11.84,0-20.16-8.24-20.16-19.86s8-19.87,18.74-19.87,18.67,8.1,18.67,19.72C119.12,36.21,119,36.58,119,37ZM85.46,34h30c-.52-8.47-6.67-14.54-15-14.54S86.06,25.49,85.46,34Z"/><path class="cls-1" d="M157.87,30.81V55.63h-3.6v-7c-2.47,4.5-7.27,7.27-14.09,7.27-8.77,0-14.1-4.49-14.1-11.17,0-5.92,3.75-10.94,14.62-10.94h13.42V30.66c0-7.27-4-11.17-11.62-11.17a20.31,20.31,0,0,0-13.49,5l-1.88-2.7a23.88,23.88,0,0,1,15.67-5.55C152.47,16.19,157.87,21.14,157.87,30.81Zm-3.75,13.27V36.73H140.78c-8.1,0-10.95,3.38-10.95,7.87,0,5.1,4,8.25,10.87,8.25C147.3,52.85,151.87,49.7,154.12,44.08Z"/><path class="cls-1" d="M192.73,53.15a11.85,11.85,0,0,1-8,2.77c-6.9,0-10.65-4-10.65-10.64V19.72h-7.2V16.49h7.2V8h3.75v8.54h12.44v3.23H177.81V44.91c0,5,2.47,7.79,7.27,7.79a9,9,0,0,0,6.07-2.17Z"/><path class="cls-1" d="M234.78,37H201.12c.38,9.29,7.2,15.59,16.57,15.59a15.79,15.79,0,0,0,12.52-5.47l2.17,2.47c-3.45,4.2-8.84,6.37-14.77,6.37-11.84,0-20.16-8.24-20.16-19.86s8-19.87,18.74-19.87,18.67,8.1,18.67,19.72C234.86,36.21,234.78,36.58,234.78,37ZM201.2,34h30c-.52-8.47-6.67-14.54-15-14.54S201.79,25.49,201.2,34Z"/><path class="cls-1" d="M281.25,0V55.63h-3.67V46.4c-3.07,6.08-9,9.52-16,9.52-11,0-19.34-8.17-19.34-19.86s8.32-19.87,19.34-19.87a17.55,17.55,0,0,1,16,9.37V0Zm-3.74,36.06c0-9.82-6.75-16.49-15.75-16.49S246,26.24,246,36.06s6.75,16.49,15.74,16.49S277.51,45.88,277.51,36.06Z"/><path class="cls-1" d="M372.26,16.49,357.42,55.63h-3.53l-13.19-34-13.27,34H324L309.14,16.49h3.59l13,34.94,13.34-34.94h3.23l13.27,34.86,13.19-34.86Z"/><path class="cls-1" d="M379.75,4A3.08,3.08,0,0,1,382.82.9,3,3,0,1,1,379.75,4ZM381,16.49h3.75V55.63H381Z"/><path class="cls-1" d="M419.93,53.15a11.85,11.85,0,0,1-8,2.77c-6.9,0-10.65-4-10.65-10.64V19.72h-7.19V16.49h7.19V8H405v8.54h12.45v3.23H405V44.91c0,5,2.48,7.79,7.27,7.79a9,9,0,0,0,6.08-2.17Z"/><path class="cls-1" d="M465.36,32.76V55.63h-3.75V33.06c0-8.85-4.72-13.49-12.67-13.49-9.22,0-14.84,5.92-14.84,15.21V55.63h-3.75V0h3.75V24.66c2.7-5.32,8.09-8.47,15.36-8.47C459,16.19,465.36,21.82,465.36,32.76Z"/><path class="cls-2" d="M563.65,13.18c-7.49-19.82-31.81-10.93-34.06-1-3.09-10.55-26.81-18.42-34.05,1-8.06,21.67,31.24,41.12,34.05,44.31C532.4,55,571.7,34.5,563.65,13.18Z"/><path class="cls-1" d="M633.27,36.06c0,11.69-8.32,19.86-19.34,19.86a17.47,17.47,0,0,1-16-9.52v9.23h-3.6V0H598V25.41a17.51,17.51,0,0,1,15.89-9.22C625,16.19,633.27,24.29,633.27,36.06Zm-3.75,0c0-9.82-6.82-16.49-15.82-16.49S598,26.24,598,36.06s6.75,16.49,15.74,16.49S629.52,45.88,629.52,36.06Z"/><path class="cls-1" d="M675.17,16.49,655.08,61c-3.15,7.19-7.05,9.52-12.22,9.52A12.52,12.52,0,0,1,633.79,67l1.87-2.85a9.54,9.54,0,0,0,7.28,3.07c3.59,0,6.22-1.65,8.62-7l2.1-4.73L636,16.49h4l15.67,35,15.67-35Z"/><path class="cls-1" d="M736.26,40.86H705.83l-6.67,14.77H695L719.17,3.15H723l24.13,52.48H743Zm-1.42-3.23L721.05,7.35,707.33,37.63Z"/><path class="cls-1" d="M774,16.19v3.68c-.3,0-.6-.08-.9-.08-8.7,0-13.87,5.77-13.87,15.44v20.4h-3.75V16.49h3.6V25C761.45,19.34,766.62,16.19,774,16.19Z"/><path class="cls-1" d="M805.53,53.15a11.85,11.85,0,0,1-8,2.77c-6.9,0-10.65-4-10.65-10.64V19.72h-7.2V16.49h7.2V8h3.75v8.54h12.44v3.23H790.61V44.91c0,5,2.47,7.79,7.27,7.79A9,9,0,0,0,804,50.53Z"/><path class="cls-1" d="M814.75,4A3.08,3.08,0,0,1,817.82.9,3,3,0,1,1,814.75,4ZM816,16.49h3.74V55.63H816Z"/><path class="cls-1" d="M835.51,0h3.75V55.63h-3.75Z"/><path class="cls-1" d="M855.07,0h3.75V55.63h-3.75Z"/><path class="cls-1" d="M907.7,37H874c.37,9.29,7.2,15.59,16.57,15.59a15.8,15.8,0,0,0,12.52-5.47l2.17,2.47c-3.45,4.2-8.85,6.37-14.77,6.37-11.84,0-20.16-8.24-20.16-19.86s8-19.87,18.74-19.87,18.66,8.1,18.66,19.72C907.77,36.21,907.7,36.58,907.7,37ZM874.11,34h30c-.52-8.47-6.67-14.54-15-14.54S874.71,25.49,874.11,34Z"/><path class="cls-1" d="M937.91,16.19v3.68c-.3,0-.6-.08-.9-.08-8.7,0-13.87,5.77-13.87,15.44v20.4h-3.75V16.49H923V25C925.39,19.34,930.56,16.19,937.91,16.19Z"/><path class="cls-1" d="M956.27,1.27h5.4L949.9,10.12h-4Zm-8,15.22H952V55.63h-3.75Z"/><path class="cls-1" d="M996.08,30.81V55.63h-3.6v-7c-2.48,4.5-7.27,7.27-14.1,7.27-8.77,0-14.09-4.49-14.09-11.17,0-5.92,3.75-10.94,14.62-10.94h13.42V30.66c0-7.27-4-11.17-11.62-11.17a20.36,20.36,0,0,0-13.5,5l-1.87-2.7A23.88,23.88,0,0,1,981,16.19C990.68,16.19,996.08,21.14,996.08,30.81Zm-3.75,13.27V36.73H979c-8.09,0-10.94,3.38-10.94,7.87,0,5.1,4,8.25,10.87,8.25C985.51,52.85,990.08,49.7,992.33,44.08Z"/><path class="cls-1" d="M1071.94,20.84c0,11-8,17.62-21.14,17.62h-15V55.63H1032V3.15h18.82C1064,3.15,1071.94,9.75,1071.94,20.84Zm-3.9,0c0-9.07-6-14.24-17.24-14.24h-15V35h15C1062,35,1068,29.84,1068,20.84Z"/><path class="cls-1" d="M1116.46,37H1082.8c.38,9.29,7.2,15.59,16.57,15.59a15.79,15.79,0,0,0,12.52-5.47l2.17,2.47c-3.44,4.2-8.84,6.37-14.76,6.37-11.85,0-20.17-8.24-20.17-19.86s8-19.87,18.74-19.87,18.67,8.1,18.67,19.72C1116.54,36.21,1116.46,36.58,1116.46,37ZM1082.88,34h30c-.53-8.47-6.68-14.54-15-14.54S1083.48,25.49,1082.88,34Z"/><path class="cls-1" d="M1122.38,50.9l1.73-3a22.74,22.74,0,0,0,14.09,4.73c8.25,0,11.55-2.93,11.55-7.35,0-11.4-25.94-3-25.94-18.37,0-5.92,4.94-10.72,14.84-10.72,4.95,0,10.35,1.5,13.42,3.83l-1.73,3a20.19,20.19,0,0,0-11.76-3.52c-7.65,0-11,3.15-11,7.35,0,11.77,25.94,3.45,25.94,18.37,0,6.37-5.47,10.71-15.44,10.71C1131.6,55.92,1125.46,53.75,1122.38,50.9Z"/><path class="cls-1" d="M1192.25,30.81V55.63h-3.6v-7c-2.47,4.5-7.27,7.27-14.09,7.27-8.77,0-14.1-4.49-14.1-11.17,0-5.92,3.75-10.94,14.62-10.94h13.42V30.66c0-7.27-4-11.17-11.62-11.17a20.31,20.31,0,0,0-13.49,5l-1.88-2.7a23.88,23.88,0,0,1,15.67-5.55C1186.85,16.19,1192.25,21.14,1192.25,30.81Zm-3.75,13.27V36.73h-13.34c-8.1,0-11,3.38-11,7.87,0,5.1,4,8.25,10.87,8.25C1181.68,52.85,1186.25,49.7,1188.5,44.08Z"/><path class="cls-1" d="M1242.55,0V55.63h-3.68V46.4c-3.07,6.08-9,9.52-16,9.52-11,0-19.34-8.17-19.34-19.86s8.32-19.87,19.34-19.87a17.55,17.55,0,0,1,16,9.37V0Zm-3.75,36.06c0-9.82-6.75-16.49-15.74-16.49s-15.75,6.67-15.75,16.49,6.75,16.49,15.75,16.49S1238.8,45.88,1238.8,36.06Z"/><path class="cls-1" d="M1286.62,30.81V55.63H1283v-7c-2.47,4.5-7.27,7.27-14.09,7.27-8.77,0-14.09-4.49-14.09-11.17,0-5.92,3.74-10.94,14.62-10.94h13.42V30.66c0-7.27-4-11.17-11.63-11.17a20.33,20.33,0,0,0-13.49,5l-1.87-2.7a23.85,23.85,0,0,1,15.66-5.55C1281.23,16.19,1286.62,21.14,1286.62,30.81Zm-3.74,13.27V36.73h-13.35c-8.1,0-11,3.38-11,7.87,0,5.1,4,8.25,10.88,8.25C1276.05,52.85,1280.63,49.7,1282.88,44.08Z"/></g></g></svg>