<svg xmlns="http://www.w3.org/2000/svg" viewBox="0 0 600 697.5"><defs><style>.cls-1{fill:#fff;}</style></defs><title>Icon</title><g id="Upper"><path class="cls-1" d="M89.73,122.5V552.94H520.17V581.5h-459v-459Z"/><path class="cls-1" d="M263.43,276.25,346.38,360,444.85,236.9H373.53c-3.4,0-6.8,0-10.2,0-8.85,0-14.13-4.28-14.74-13.28-.58-8.49,5.06-14.39,14.44-14.89,7.46-.4,15-.11,22.43-.11,28.89,0,57.79-.06,86.68,0,14.58,0,19.42,5,19.45,19.71.06,35,.15,70-.15,105,0,4.48-1,10.66-3.94,13-3.93,3.07-11.35,5.57-15.19,3.8-4.31-2-8.66-8.89-8.89-13.85-1-21-.42-42.13-.42-63.21V259.85L350.56,400.23l-85.44-85.9L158.74,420.78l-18-21.73Z"/></g></svg>